<svg width="24" height="24" viewBox="0 0 24 24" fill="none" xmlns="http://www.w3.org/2000/svg">
<defs>
<linearGradient id="g" x1="2" y1="1" x2="22" y2="23" gradientUnits="userSpaceOnUse">
<stop stop-color="#4BA07E"/>
<stop offset="0.55" stop-color="#2F6C5B"/>
<stop offset="1" stop-color="#234F43"/>
</linearGradient>
</defs>
<rect width="24" height="24" rx="6" fill="url(#g)"/>
<path d="M4.6 10.4C6.9 9.1 9.5 9.1 12 10.9C14.5 9.1 17.1 9.1 19.4 10.4V17.4C17.1 16.1 14.5 16.1 12 17.9C9.5 16.1 6.9 16.1 4.6 17.4V10.4Z" fill="#F7FBF8"/>
<path d="M12 10.9V17.9" stroke="#2F6C5B" stroke-width="0.9"/>
<path d="M6.4 11.8C7.6 11.3 8.9 11.4 10.2 12.1" stroke="#7FB5A2" stroke-width="0.8" stroke-linecap="round"/>
<path d="M6.4 13.9C7.6 13.4 8.9 13.5 10.2 14.2" stroke="#7FB5A2" stroke-width="0.8" stroke-linecap="round"/>
<path d="M13.8 12.1C15.1 11.4 16.4 11.3 17.6 11.8" stroke="#7FB5A2" stroke-width="0.8" stroke-linecap="round"/>
<path d="M13.8 14.2C15.1 13.5 16.4 13.4 17.6 13.9" stroke="#7FB5A2" stroke-width="0.8" stroke-linecap="round"/>
<path d="M17.7 3.2L18.42 5.15L20.37 5.87L18.42 6.59L17.7 8.54L16.98 6.59L15.03 5.87L16.98 5.15L17.7 3.2Z" fill="#F2B764"/>
</svg>
